<?xml version="1.0" encoding="UTF-8" standalone="no"?>
<!-- Created with Inkscape (http://www.inkscape.org/) -->

<svg
   id="svg1976"
   sodipodi:version="0.32"
   inkscape:version="0.43"
   width="8.7312489mm"
   height="10.622081mm"
   version="1.0"
   sodipodi:docname="jokosher.svg"
   inkscape:export-filename="/home/tigert/svn/jokosher/trunk/jokosher-logo.png"
   inkscape:export-xdpi="162.56"
   inkscape:export-ydpi="162.56"
   xmlns:inkscape="http://www.inkscape.org/namespaces/inkscape"
   xmlns:sodipodi="http://sodipodi.sourceforge.net/DTD/sodipodi-0.dtd"
   xmlns:xlink="http://www.w3.org/1999/xlink"
   xmlns="http://www.w3.org/2000/svg"
   xmlns:svg="http://www.w3.org/2000/svg"
   xmlns:rdf="http://www.w3.org/1999/02/22-rdf-syntax-ns#"
   xmlns:cc="http://creativecommons.org/ns#"
   xmlns:dc="http://purl.org/dc/elements/1.1/">
  <metadata
     id="metadata1981">
    <rdf:RDF>
      <cc:Work
         rdf:about="">
        <dc:format>image/svg+xml</dc:format>
        <dc:type
           rdf:resource="http://purl.org/dc/dcmitype/StillImage" />
      </cc:Work>
    </rdf:RDF>
  </metadata>
  <defs
     id="defs1979">
    <linearGradient
       inkscape:collect="always"
       id="linearGradient4722">
      <stop
         style="stop-color:#ce5c00"
         offset="0"
         id="stop4724" />
      <stop
         style="stop-color:#f57900"
         offset="1"
         id="stop4726" />
    </linearGradient>
    <linearGradient
       inkscape:collect="always"
       id="linearGradient4634">
      <stop
         style="stop-color:white;stop-opacity:1;"
         offset="0"
         id="stop4636" />
      <stop
         style="stop-color:#ffffff;stop-opacity:0"
         offset="1"
         id="stop4638" />
    </linearGradient>
    <linearGradient
       inkscape:collect="always"
       id="linearGradient4618">
      <stop
         style="stop-color:#fcaf3e"
         offset="0"
         id="stop4620" />
      <stop
         style="stop-color:#f57900"
         offset="1"
         id="stop4622" />
    </linearGradient>
    <linearGradient
       id="linearGradient5187">
      <stop
         style="stop-color:white;stop-opacity:1;"
         offset="0"
         id="stop5189" />
      <stop
         style="stop-color:white;stop-opacity:0;"
         offset="1"
         id="stop5191" />
    </linearGradient>
    <radialGradient
       inkscape:collect="always"
       xlink:href="#linearGradient4618"
       id="radialGradient4624"
       cx="-33.659405"
       cy="24.68786"
       fx="-33.659405"
       fy="24.68786"
       r="16.499998"
       gradientTransform="matrix(1.031962,-0.03295622,0.03183737,0.996928,49.476969,-9.625546)"
       gradientUnits="userSpaceOnUse" />
    <linearGradient
       inkscape:collect="always"
       xlink:href="#linearGradient4634"
       id="linearGradient4632"
       x1="-31.498053"
       y1="20.319887"
       x2="-21.652958"
       y2="51.949764"
       gradientUnits="userSpaceOnUse"
       gradientTransform="translate(47.999999,-7.853553)" />
    <radialGradient
       inkscape:collect="always"
       xlink:href="#linearGradient4722"
       id="radialGradient4728"
       cx="21.561487"
       cy="27.062336"
       fx="21.561487"
       fy="27.062336"
       r="13.4375"
       gradientTransform="matrix(1.082854,0,0,1.337337,-10.029923,-11.906892)"
       gradientUnits="userSpaceOnUse" />
    <radialGradient
       inkscape:collect="always"
       xlink:href="#linearGradient5187"
       id="radialGradient4730"
       cx="24.47097"
       cy="23.209499"
       fx="24.47097"
       fy="23.209499"
       r="14.529029"
       gradientTransform="matrix(1.755038,-4.819274e-7,4.958731e-7,1.744065,-26.476511,-20.959843)"
       gradientUnits="userSpaceOnUse" />
  </defs>
  <sodipodi:namedview
     inkscape:window-height="692"
     inkscape:window-width="1014"
     inkscape:pageshadow="2"
     inkscape:pageopacity="0.0"
     guidetolerance="10.0"
     gridtolerance="10.0"
     objecttolerance="10.0"
     borderopacity="1.0"
     bordercolor="#666666"
     pagecolor="#ffffff"
     id="base"
     showgrid="false"
     inkscape:zoom="1"
     inkscape:cx="113.56571"
     inkscape:cy="12.814613"
     inkscape:window-x="0"
     inkscape:window-y="25"
     inkscape:current-layer="svg1976"
     fill="#f57900"
     showguides="true"
     inkscape:guide-bbox="true"
     inkscape:showpageshadow="2"
     inkscape:pagecheckerboard="0"
     inkscape:deskcolor="#d1d1d1"
     inkscape:document-units="mm">
    <inkscape:grid
       id="GridFromPre046Settings"
       type="xygrid"
       originx="0"
       originy="0"
       spacingx="1.1377778"
       spacingy="1.1377778"
       color="black"
       empcolor="black"
       opacity="0.05098039"
       empopacity="0.08235294"
       empspacing="5" />
  </sodipodi:namedview>
  <path
     style="fill:url(#radialGradient4624);fill-opacity:1;stroke:#ce5c00;stroke-width:1;stroke-miterlimit:4;stroke-dasharray:none"
     d="m 2.4687501,0.588389 c -1.095965,0 -1.96875002,0.44131 -1.96875002,1.533058 v 20.7375 c 0,0.136469 0.005,0.272656 0.03125,0.401172 -0.0074,0.197336 -0.03125,0.387214 -0.03125,0.586328 0,8.7216 7.16800002,15.799999 15.99999992,15.8 8.832,0 15.999999,-7.0784 15.999999,-15.8 0,-0.199114 -0.02384,-0.388992 -0.03125,-0.586328 0.02627,-0.128516 0.03125,-0.264703 0.03125,-0.401172 V 2.121447 C 32.499999,1.029699 31.627215,0.5 30.53125,0.5 c 0,0 -7.075679,2.17009 -14.091304,2.17009 -7.0156251,0 -13.9711959,-2.081701 -13.9711959,-2.081701 z"
     id="path1985"
     sodipodi:nodetypes="cccsssssccczc" />
  <path
     style="opacity:0.710983;fill:url(#radialGradient4728);fill-opacity:1;fill-rule:evenodd;stroke:none;stroke-width:1px;stroke-linecap:butt;stroke-linejoin:miter;stroke-opacity:1"
     d="m 2.5244151,2.052981 c -0.03785,0.0036 -0.102551,0.02478 -0.135357,0.03384 -0.0053,0.0017 -0.02864,-0.0018 -0.03384,0 -0.01014,0.0039 -0.02421,0.02929 -0.03384,0.03384 -0.0047,0.0024 -0.02928,-0.0026 -0.03384,0 -0.0089,0.0055 -0.02544,0.02773 -0.03384,0.03384 -0.0041,0.0032 -0.02987,0.03047 -0.03384,0.03384 -0.0037,0.0037 -0.03021,0.03 -0.03384,0.03384 -0.0034,0.0042 -0.03053,0.02952 -0.03384,0.03384 -0.185919,0.278192 -0.203035,0.864527 -0.203035,1.759638 v 0.81214 C 5.2120291,10.1851 9.3869569,17.077518 13.792858,24.420688 L 6.9573481,3.101996 C 4.9984471,2.704457 3.7426261,2.357534 3.7426261,2.357534 3.1597141,2.131552 2.7893761,2.027729 2.5244151,2.052981 Z M 13.792864,24.420683 22.69257,3.677262 C 21.027958,3.915328 19.18498,4.140337 17.312139,4.18485 16.318048,9.98179 15.112031,17.004798 13.792864,24.420683 Z m 0,0 17.257985,-5.549626 v -4.906682 c -4.965173,3.019213 -10.932331,6.660916 -17.257985,10.456308 z m 0,0 15.261473,6.530963 c 0.660109,-1.114736 1.185372,-2.307317 1.522764,-3.586954 -5.044325,-0.870028 -10.793543,-1.878359 -16.784237,-2.944009 z m 0,0 4.365255,13.569514 c 1.156143,-0.130538 2.292432,-0.395969 3.35008,-0.778301 -2.380606,-3.927342 -5.003829,-8.272037 -7.715335,-12.791213 z m 0,0 -4.9405211,11.505324 c 0.851456,0.521791 1.7505631,0.978547 2.7071351,1.319728 0.696733,-4.012606 1.437275,-8.349604 2.233386,-12.825052 z m 0,0 -11.1669309,3.586954 c 0.276032,0.875033 0.616656,1.709662 1.049014,2.5041 3.191472,-1.930778 6.6028829,-3.982033 10.1179169,-6.091054 z m 0,0 -11.8437149,-5.075878 v 2.977849 c 3.73901,0.650316 7.7259438,1.365544 11.8437149,2.098029 z"
     id="path4642" />
  <path
     style="opacity:0.416185;fill:url(#radialGradient4730);fill-opacity:1;fill-rule:evenodd;stroke:none;stroke-width:1px;stroke-linecap:butt;stroke-linejoin:miter;stroke-opacity:1"
     d="m 30.999999,10.083947 c -2.35772,5.992637 -7.149826,8.933939 -13.136664,8.351204 -5.962618,-0.580377 -11.5838579,-0.225245 -15.8911259,4.636146 -0.0067,0.181612 -0.03027,0.338704 -0.03027,0.52195 0,8.026592 6.5090048,14.553199 14.5290289,14.5532 8.020026,0 14.529031,-6.526609 14.529031,-14.5532 0,-0.183245 -0.02354,-0.340339 -0.03027,-0.52195 0.02386,-0.118274 0.03027,-0.242841 0.03027,-0.368436 z"
     id="path5258" />
  <path
     style="opacity:0.791908;fill:none;stroke:url(#linearGradient4632);stroke-width:1;stroke-opacity:1"
     d="m 3.3456991,1.810536 c -1.83269,-0.710493 -1.8457,-0.284062 -1.8457,1.685912 v 19.425009 c 0,0.127833 0.0047,0.2554 0.02929,0.375782 -0.00694,0.184847 -0.02929,0.362708 -0.02929,0.549219 0,8.169604 6.7199998,14.800007 14.9999999,14.800008 8.28,0 15,-6.630404 15,-14.800008 0,-0.186511 -0.02235,-0.364372 -0.0293,-0.549219 0.02463,-0.120382 0.0293,-0.247949 0.0293,-0.375782 V 3.496448 c 0,-1.42048 0.17645,-2.594556 -1.8457,-1.685912 0,0 -6.60089,1.86527 -13.17804,1.86527 -6.5771501,0 -13.1305599,-1.86527 -13.1305599,-1.86527 z"
     id="path5240"
     sodipodi:nodetypes="cccsssssccczc" />
  <path
     sodipodi:nodetypes="cccsccccscc"
     id="path4640"
     d="m 21.203341,7.282267 5.69152,-1.198643 v 18.809774 c -9e-6,2.430022 -0.749021,4.246004 -2.247042,5.447953 -1.488177,1.201942 -3.745073,1.802915 -6.770692,1.80292 h -1.153088 v -3.801809 h 0.88699 c 1.182654,-2e-6 2.074571,-0.291779 2.675755,-0.875331 0.611035,-0.583554 0.916553,-1.441464 0.916557,-2.573733 V 7.282267"
     style="font-style:normal;font-variant:normal;font-weight:bold;font-stretch:normal;font-size:25.1854px;line-height:125%;font-family:'Bitstream Vera Sans';text-align:start;writing-mode:lr-tb;text-anchor:start;fill:#ffffff;fill-opacity:1;stroke:none;stroke-width:1px;stroke-linecap:butt;stroke-linejoin:miter;stroke-opacity:1" />
</svg>
